<?xml version="1.0" encoding="UTF-8"?>
<svg id="a" data-name="Layer 1" xmlns="http://www.w3.org/2000/svg" width="178.41" height="367.21" viewBox="0 0 178.41 367.21">
<title>Tottenham Hotspur F.C. logo - Brandlogos.net</title>
  <path d="M53.18,230.82c-.63-.11-1.87-.1-3.12,1.25-1.97,2.14-2.9,5.03-2.75,8.59.04.91.17,1.42.43,2.15.46,1.29,1.56,2.15,2.37,2.3.96.17,2.04-.39,3.04-1.58,2.21-2.61,3.16-7.41,2.08-10.48-.45-1.28-1.18-2.06-2.05-2.23M99.79,266.08c1.11,2.39,3.03,3.76,4.46,4.26,1.87.65,6.8,1.68,10.89,2.13,4.49.5,8-2,10.01-7.06-1.5-.08-3.11-.26-4.78-.49-.31,1.02-.71,2.03-1.23,2.93-.38.68-1.25.92-1.93.53-.68-.39-.92-1.25-.53-1.93.34-.6.62-1.27.85-1.97-.88-.15-1.76-.32-2.64-.48-.3,1.17-.64,2.29-1,3.12-.31.71-1.15,1.04-1.86.73-.72-.31-1.05-1.15-.73-1.86.29-.67.57-1.58.83-2.56-.46-.1-.92-.2-1.36-.3-.48-.11-.96-.22-1.45-.34-.26.82-.55,1.67-.92,2.53-.3.72-1.13,1.06-1.85.75-.72-.31-1.06-1.13-.75-1.86.3-.71.55-1.42.77-2.11-2.39-.6-4.83-1.27-7.32-2-.6,2.6-.08,4.64.54,5.97M126.01,262.62c.58-2.87-.05-4.88-.74-6.1-.88-1.54-2.32-2.65-3.97-3.03l-1.79-.38c-1.63-.33-4.1-.83-7.79-1.75-4.94-1.23-9.19,1.03-11.52,6.08,2.41.7,4.78,1.35,7.09,1.93.37-1.8.45-3.04.45-3.07.05-.78.72-1.37,1.5-1.33.78.05,1.38.71,1.33,1.5,0,.1-.09,1.53-.53,3.57.46.11.92.22,1.36.32.47.11.92.2,1.37.3.4-1.99.66-3.68.67-3.72.12-.77.84-1.31,1.61-1.19.77.12,1.3.84,1.19,1.61-.02.13-.28,1.83-.7,3.85.95.19,1.85.35,2.7.49.31-1.71.39-3.08.39-3.1.04-.78.7-1.38,1.48-1.35.78.04,1.38.7,1.35,1.48,0,.12-.08,1.55-.42,3.4,1.96.27,3.6.41,4.97.47M134.28,244.7c-.21-5.16-1.25-10.09-3-14.67-2.14-5.61-9.3-9.59-18.74-11.73-17.43-3.95-40.35,2.57-54.93,14.83.56,2.24.4,4.9-.36,7.34,10.5,5.65,25.78,11.76,40.19,16.15,3.39-7.79,9.88-9.27,14.95-8.01,3.63.9,5.96,1.38,7.67,1.72l1.87.4c2.41.56,4.52,2.16,5.78,4.39.9,1.58,1.72,4.07,1.16,7.49,1.77-.1,2.63-.4,2.83-.64,1.89-5.39,2.81-11.22,2.57-17.27M114.84,275.28c-3.94-.43-9.21-1.47-11.51-2.27-2.57-.89-4.85-3.03-6.1-5.74-.52-1.12-.99-2.61-1.07-4.41-.04-1.08.06-2.27.38-3.56-14.43-4.41-29.73-10.52-40.37-16.2-.37.69-.8,1.32-1.28,1.89-.8.95-1.7,1.63-2.63,2.03,1,8.85,4.08,17.53,8.97,25.1,6.5,10.03,15.34,16.91,24.9,19.06,3.39.77,7.82,1.72,11.78.84,14.69-3.26,26.67-13.42,32.52-26.79-.69.12-1.46.19-2.28.22-3.36,9.81-10.4,10.15-13.31,9.83M46.61,233.89c.48-1.09,1.08-2.1,1.8-2.95.57-.68,1.19-1.22,1.84-1.62,1.73-8.07,5.35-15.25,10.63-20.68-7.89,5.61-13.93,13.61-17.11,22.88.42.58,1.54,1.45,2.84,2.36M45.71,236.63c-1.15-.81-2.12-1.58-2.82-2.25-1.21,4.48-1.78,9.22-1.58,14.1.04.98.11,1.96.21,2.93.7-2.88,2.09-5.9,4.07-8.97-.38-1.8-.32-3.85.12-5.81M49.43,247.28c-1.03-.26-1.91-.89-2.6-1.85-3.47,5.35-4.93,10.13-3.65,14.42,5.34,18,21.22,31.3,40.25,33.07-18.19-5.52-31.64-24.47-33.99-45.65" style="fill: #001c58;"/>
  <path d="M53.18,230.82c-.63-.11-1.87-.1-3.12,1.25-1.97,2.14-2.89,5.03-2.75,8.59.04.91.16,1.42.42,2.15.46,1.29,1.56,2.15,2.37,2.3.96.18,2.04-.39,3.04-1.58,2.21-2.61,3.16-7.41,2.08-10.48-.45-1.28-1.18-2.06-2.05-2.23M126.01,262.62c.58-2.87-.05-4.88-.74-6.1-.88-1.54-2.32-2.65-3.97-3.03l-1.79-.38c-1.63-.33-4.1-.83-7.79-1.75-4.94-1.23-9.18,1.03-11.52,6.08,2.41.7,4.78,1.35,7.09,1.93.37-1.8.45-3.04.45-3.07.05-.78.72-1.37,1.5-1.33.78.05,1.38.71,1.33,1.5,0,.1-.09,1.53-.53,3.57.46.11.92.22,1.36.32.47.11.92.2,1.37.3.4-1.99.66-3.68.67-3.72.12-.77.84-1.31,1.61-1.19.77.12,1.3.84,1.19,1.61-.02.13-.28,1.83-.7,3.86.95.18,1.85.35,2.7.49.31-1.71.39-3.08.39-3.1.04-.78.7-1.38,1.48-1.35.78.04,1.38.7,1.35,1.48,0,.12-.08,1.55-.42,3.4,1.96.27,3.61.41,4.97.47M99.79,266.08c1.11,2.38,3.03,3.76,4.46,4.26,1.87.65,6.8,1.68,10.89,2.13,4.49.5,8-2,10.01-7.06-1.5-.08-3.11-.26-4.78-.49-.31,1.02-.71,2.03-1.22,2.93-.39.68-1.25.92-1.93.53-.68-.39-.92-1.25-.53-1.93.34-.6.62-1.27.85-1.97-.88-.15-1.76-.31-2.63-.48-.3,1.17-.65,2.29-1.01,3.12-.31.71-1.15,1.04-1.86.73-.72-.31-1.05-1.15-.73-1.86.29-.67.57-1.58.83-2.56-.46-.1-.92-.2-1.36-.3-.48-.11-.96-.22-1.45-.34-.26.82-.55,1.67-.92,2.53-.3.72-1.13,1.06-1.85.75-.72-.31-1.06-1.13-.75-1.86.3-.71.55-1.42.77-2.1-2.38-.61-4.83-1.28-7.32-2-.6,2.6-.08,4.65.54,5.97M131.28,230.03c-2.14-5.61-9.3-9.59-18.73-11.73-17.44-3.94-40.35,2.57-54.93,14.83.56,2.24.39,4.9-.36,7.34,10.5,5.65,25.78,11.76,40.19,16.15,3.39-7.79,9.88-9.27,14.95-8.01,3.63.9,5.96,1.38,7.67,1.72l1.87.4c2.41.56,4.52,2.16,5.79,4.39.9,1.58,1.72,4.07,1.16,7.49,1.77-.1,2.63-.4,2.83-.64,1.89-5.39,2.81-11.22,2.56-17.27-.21-5.16-1.25-10.09-3-14.67M114.84,275.28c-3.94-.43-9.21-1.47-11.51-2.27-2.57-.89-4.85-3.03-6.1-5.74-.52-1.12-.99-2.61-1.06-4.41-.04-1.08.06-2.27.38-3.56-14.43-4.41-29.73-10.52-40.37-16.2-.37.69-.8,1.32-1.28,1.89-.8.95-1.7,1.63-2.63,2.03,1,8.85,4.08,17.53,8.98,25.1,6.49,10.03,15.34,16.91,24.9,19.06,3.39.77,7.81,1.72,11.78.84,14.69-3.26,26.67-13.42,32.52-26.79-.69.12-1.46.19-2.28.22-3.36,9.81-10.4,10.15-13.31,9.83M46.61,233.89c.48-1.09,1.08-2.1,1.8-2.95.58-.68,1.19-1.22,1.84-1.62,1.73-8.07,5.35-15.25,10.63-20.68-7.89,5.61-13.93,13.61-17.11,22.88.42.58,1.54,1.45,2.84,2.36M45.71,236.63c-1.15-.81-2.13-1.58-2.83-2.25-1.21,4.48-1.78,9.22-1.58,14.1.04.98.11,1.96.21,2.93.7-2.88,2.09-5.9,4.07-8.97-.38-1.8-.32-3.85.12-5.81M49.43,247.28c-1.03-.26-1.91-.89-2.6-1.85-3.46,5.35-4.93,10.13-3.65,14.42,5.34,18,21.22,31.3,40.24,33.07-18.18-5.52-31.64-24.47-33.99-45.65M71.83,26.9c0-2.59-.28-4.94-.79-7.05,0,0,4.18-.22,4.18-5.31,0-4.2-2.8-7.06-3.55-7.06-.61,0-.75.64-2.06.64-3.2,0-3.43-4.08-3.43-4.08.47-.01.96-.03,1.46-.03,9.15,0,17.62,2.78,17.62,22.89,0,7.44-.7,14.05-1.33,19.9-.62,5.77-1.19,11.13-1.02,16.37,0,0-15.94-1.87-15.94-13.87,0-7.78,4.85-9.68,4.85-22.39M97.17,159.77c0,15.74-6.71,28.54-10.59,32.42-12.02,12.02-21.94,3.27-22.04,15.33-5.46,4.94-9.38,12.45-11.3,21.03.12.01.24.03.35.05,1.13.21,2.1.85,2.84,1.87,15.27-12.44,38.78-18.98,56.74-14.92,5.71,1.29,10.56,3.4,14.23,6.63-5.51-8.92-13.95-15.81-23.92-19.39-2.37-.85-6.58-1.82-6.58-9.5,0-14.33,15.68-3.19,26-18.8.51-.77-.22-1.44-.82-.84-3.13,3.12-10.8,5.27-14.86,5.27s-5.59-.93-5.59-.93c3.84-7.63,8.61-14.13,8.61-14.13-9.59-9.59,6.55-62.31,49.26-62.31,0-12.23-1.29-21.77-2.86-28.86-1.02.24-9.07,2.14-9.43.45-.32-1.5,5.93-4.75,8.08-5.82-2.1-7.31-4.19-10.74-4.19-10.74-36.61,11.53-29.25,41.84-38.17,41.84-5.81,0-10.36-4.52-11.99-6.15-21.87-21.86-11.68-36.33-11.68-65.38,0-19.57-7.6-26.9-21.63-26.9s-19.05,6.08-19.05,6.08c0,0,19.23.62,19.23,20.82s-23.82,26.98-23.82,53.81c0,44.66,53.18,43.82,53.18,79.06" style="fill: #001c58;"/>
  <path d="M16.59,287.3c3.57,2.36,7.35,4.47,7.35,4.47l-1.33,3.43c-.49-2.07-2.55-3.21-5.21-4.85l-8.7,12.59c-1.06,1.52-3.14,4.84-3.3,6.14,0,0-1.43-.91-2.73-1.88-1.36-1.01-2.66-1.95-2.66-1.95,1.3-.32,3.54-3.62,4.89-5.46l8.47-12.09c-3.17-2.45-4.41-2.93-6.65-3.04l3.02-2.26s2.9,2.29,6.86,4.91" style="fill: #001c58;"/>
  <path d="M32.19,297.64c-3.87-1.85-6.91,2.52-9.2,7.32-2.29,4.8-3.79,9.95.07,11.79,3.87,1.85,6.93-2.56,9.22-7.36,2.29-4.8,3.77-9.91-.09-11.76M22.22,318.53c-6.05-2.89-6.85-9.55-3.87-15.79,2.99-6.27,8.69-9.78,14.71-6.91,6.02,2.87,6.87,9.52,3.87,15.79-2.98,6.23-8.66,9.8-14.71,6.91" style="fill: #001c58;"/>
  <path d="M49.28,302.27c4.09,1.16,7.42,1.93,7.42,1.93l-.36,3.66c-1.09-1.58-1.6-1.97-5.09-2.86l-4.23,14.23c-.34,1.3-2.03,6.22-1.49,7.15,0,0-1.18-.25-3.07-.78-2.13-.59-3.13-.99-3.13-.99,1.09-.72,2.47-4.93,2.92-6.64l4.26-14.32c-3.62-1.2-4.46-1.29-6.18-.48l2.09-3.12s2.36.95,6.87,2.23" style="fill: #001c58;"/>
  <path d="M66.15,306.05c4.03.61,7.83.96,7.83.96l.15,3.67c-1.51-1.34-2.07-1.77-6.05-2.28l-2.3,14.61c-.16,1.34-1.02,6.42-.36,7.26,0,0-1.39-.15-3.32-.43-1.93-.27-3.11-.54-3.11-.54.94-.73,1.72-5.55,1.89-6.89l2.36-14.79c-3.45-.69-4.16-.42-5.81.54l1.5-3.47s3.22.75,7.23,1.36" style="fill: #001c58;"/>
  <path d="M81.09,319.94l-.3,9.82c5.15.07,8.68-.26,10.24-2.49l-.79,4.46s-2.85.06-7.02,0c-4.59-.07-8.19-.36-8.19-.36.76-.76.96-5.54.96-6.89l.42-9.64c.01-2.56.25-6.71-.61-7.59,3.73.26,3.26.26,6.68.39,4.49.18,7.03.04,7.03.04l.56,3.68c-1.75-1.46-4.37-1.63-8.66-1.66l-.24,8.24,6.58.04c.59,0,.63.34.63,1,0,.65-.01,1-.64.99l-6.64-.04Z" style="fill: #001c58;"/>
  <path d="M109.84,322.9c.38,3.57.76,6.14,1.57,6.61-.2.37-.85.86-1.71.95-1.03.11-1.81-.4-2.53-1.23l-11.67-13.39.44,8.52c.14,1.34.3,6.41,1.13,7.09l-3.89.18c.68-.84.5-5.67.35-7.01l-.55-9.62c-.14-1.34-.39-6.65-1.23-7.33l3.57-.13,11.96,14.2-1-8.18c-.14-1.34-.88-6.21-1.68-6.89,0,0,.43-.04,1.88-.23,1.45-.2,1.98-.3,1.98-.3-.68.83.11,5.83.25,7.17l1.12,9.58Z" style="fill: #001c58;"/>
  <path d="M131.77,317.83c.42,1.66,1.24,5.93,2.46,6.77,0,0-1.85.53-2.97.88-1.01.31-3.22.88-3.22.88.52-.92-.64-6.05-.96-7.33l-1.11-4.46-7.42,1.82.84,4.53c.24,1.47,1.02,6.4,2.02,7,0,0-1.04.22-3.2.66-1.81.37-3.07.57-3.07.57.55-.92-.19-5.5-.42-6.95l-1.8-9.58c-.33-1.79-1.15-6.31-2.14-6.84,0,0,.96-.18,3.08-.59,2.12-.41,3.15-.69,3.15-.69-.52,1.07.4,5.41.65,6.93l.57,3.04,7.3-1.78-.79-3.11c-.43-1.64-1.33-5.6-2.35-6.33,0,0,1.01-.29,3.04-.86,2.03-.58,2.9-.9,2.9-.9-.4,1.09.73,4.94,1.2,6.93l2.25,9.42Z" style="fill: #001c58;"/>
  <path d="M144.01,310.59l-6.43-8.91.45,11.19,5.98-2.28ZM145.32,312.15l-7.24,2.83.25,3.97c.16,1.36.16,2.6.46,3.3.15.35.39.58.63.71,0,0-.75.27-2,.67-1.24.4-1.93.6-1.93.6.43-.75.54-1.78.5-3.06l-.63-18.84c-.06-.69-.14-1.32-.37-1.86-.2-.48-.54-.75-.78-.95.82-.54,1.86-1.12,2.91-1.56,1.66-.7,2.36-.67,3.57.74l10.62,13.17c1.93,2.51,3.64,4.2,4.74,4.54,0,0-1.08.5-3.13,1.41-2.04.91-3.39,1.42-3.39,1.42.12-.43.13-.88-.13-1.56-.28-.73-1.33-1.97-2.01-2.91l-2.1-2.63Z" style="fill: #001c58;"/>
  <path d="M175.65,305.32c-1.46.98-2.55,1.73-2.55,1.73-.11-1.43-2.87-4.97-3.69-6.05l-6.24-8.14,5.02,16.04c-.19.32-.55.76-.88,1.01-.99.75-1.95.61-2.84-.09l-11.88-9.85,4.16,7.66c1.02,1.94,2.98,5.97,4.3,6.37,0,0-.82.44-1.85.94-1.03.5-1.66.79-1.66.79.23-1.13-1.7-4.47-2.83-6.62l-4.63-8.7c-1.4-2.62-2.95-5.28-4.28-5.81,1.03-.5,1.34-.65,2.81-1.38,1.23-.61,2.3-1.2,2.3-1.2l13.37,11.37-5.26-16.11s.7-.47,2.04-1.37c1.33-.89,2.54-1.78,2.54-1.78.1,1.44,2.88,5.11,3.89,6.43l5.76,7.41c1.23,1.52,3.51,4.92,5.13,5.31,0,0-1.3,1.03-2.76,2.02" style="fill: #001c58;"/>
  <path d="M38.8,334.61c1.24.45,2.84,1.01,2.84,1.01-1.35.97-2.59,4.86-3.39,6.97l-3.11,8.62c-.83,2.34-2.25,5.73-1.77,6.94,0,0-1.71-.59-3.09-1.08-1.18-.42-1.85-.65-3.11-1.18,1.52-.4,2.96-5.47,3.42-6.74l1.42-4.02-7.44-3.1-2.15,4.6c-.7,1.6-2.38,5.21-1.98,6.35,0,0-1.31-.54-3.24-1.42-2.27-1.04-2.76-1.32-2.76-1.32,1.6-.78,2.55-3.36,3.76-5.96l3.89-8.62c1.31-2.95,2.5-5.51,2.41-7.19,0,0,.7.41,2.61,1.27,1.52.69,2.3,1.03,3.16,1.37-1.21.48-2.9,4.83-3.79,6.78l-1.14,2.44,7.27,2.99,1.12-2.76c.52-1.41,2.32-5.62,1.94-7.07,0,0,1.49.54,3.13,1.14" style="fill: #001c58;"/>
  <path d="M52.97,340.66c-4.14-1.09-6.28,3.66-7.61,8.7-1.32,5.04-1.81,10.25,2.34,11.35,4.14,1.09,6.29-3.69,7.62-8.73,1.32-5.04,1.8-10.23-2.35-11.32M47.21,362.57c-6.48-1.71-8.54-7.98-6.82-14.52,1.73-6.57,6.64-10.98,13.08-9.28,6.45,1.7,8.56,7.95,6.83,14.52-1.72,6.54-6.6,10.99-13.09,9.28" style="fill: #001c58;"/>
  <path d="M64.76,364.88s.41-.45.69-1.36c.39-1.28.65-3.73.96-5.64l1.82-14.03c-3.87-.48-4.85-.21-6.55.8l1.59-3.59c1.21.27,3.87.55,7.12.96,2.17.27,8.64.86,8.64.86l.22,3.59c-1.43-1.65-2.91-1.8-6.13-2.05l-1.81,14.08c-.16,1.31-.88,5.86-.17,7.2-.78-.09-2.07-.23-3.15-.34-1.12-.11-2.59-.37-3.23-.48" style="fill: #001c58;"/>
  <path d="M95.57,360.01c.04,4.23-3.39,7.29-8.68,7.21-4.11-.06-6.26-1.75-7.08-2.44l.85-4.01c1.28,2.55,3.39,4.41,5.77,4.45,2.49.04,4.45-1.43,4.49-3.89.03-1.79-.96-2.87-5.11-5.03-3.98-2.05-5.46-4.1-5.46-7.16,0-4.16,3.62-6.27,7.87-6.28,3.13,0,5.31.96,6.68,1.69l-.88,3.67c-1.9-2.53-3.61-3.47-5.69-3.5-2.03-.03-3.48,1.08-3.47,3.18.01,2.28,2.52,3.52,5.91,5.42,3.89,2.18,4.76,4.37,4.79,6.7" style="fill: #001c58;"/>
  <path d="M114.82,347.07c.15.5.24,1.1.29,1.57.04.44.06,1.02,0,1.56-.11,1.37-.76,2.96-1.83,4.08-1.64,1.72-3.78,2.57-6.62,2.7-1.09.07-1.36-.27-1.43-1.06v-.17s-.03-.3.21-.32l.27-.03c.84-.11,2.08-.36,3.08-1.58.96-1.24,1.29-2.91,1.12-4.69-.18-1.85-.73-3.19-1.98-4.15-1.08-.84-2.36-1.1-3.66-1,0,0-.53.04-1.11.13,0,0-.34.03-.31.36l1.4,14.55c.12,1.28.47,5.79,1.52,6.72,0,0-1.2.13-3.45.31-1.72.14-3.06.17-3.06.17.45-1.12.38-2.76.26-4.69l-1.09-11.48c-.12-1.31-.35-5.82-1.41-6.93,0,0,2.88-.43,8.21-.93,2.78-.26,5.07.09,7.04,1.43,1.29.87,2.17,2.13,2.54,3.42" style="fill: #001c58;"/>
  <path d="M136.63,351.76c1.14,5.05-1.23,9.34-6.47,10.65-3.69.92-9-.43-10.48-6.9l-1.81-7.64c-.48-2.14-1.25-5.93-2.49-6.91,0,0,1.39-.2,3.56-.6,2.17-.4,3.18-.65,3.18-.65-.57.9.03,4.43.59,7.03l2.3,9.71c.42,1.78.99,3,1.99,3.72.74.53,1.72.68,2.76.49.93-.17,1.91-.7,2.42-1.65.54-1,.54-2.44.12-4.21l-2.59-9.71c-.71-2.67-1.52-6.02-2.4-6.58,0,0,1.06-.29,3.06-.86,1.51-.43,2.41-.69,3.06-.92-.6,1.46.82,5.94,1.12,7.23l2.07,7.8Z" style="fill: #001c58;"/>
  <path d="M160.2,349.77c.51.19,1.05.33,1.51.13-.05.31-.35.95-.85,1.45-2.12,2.18-4.11,1.81-4.79,1.54-3.66-1.4-9.78-6.82-10.03-7.41,0,0-.07-.16.09-.22l.22-.09c.96-.4,2.04-1.48,2.47-2.51.68-1.5.57-2.84-.13-4.49-.72-1.71-1.98-2.79-2.96-3.09-1.46-.43-2.55-.09-3.21.18,0,0-.88.34-1.14.61,0,0-.18.14.03.74l4.62,13.2c.7,1.94,1.92,5.73,3.02,6.37,0,0-1.24.49-3.14,1.17-1.89.69-3.05,1-3.05,1,.39-1.47-1.07-5.48-1.44-6.61l-2.99-8.92c-.74-2.15-2.11-6.01-3.22-6.62,0,0,2.18-.61,7.09-2.67,2.61-1.09,5.14-1.56,7.42-.9,1.38.4,2.32,1.1,3.08,2.21.29.43.51.85.69,1.28.17.41.29.88.36,1.31.24,1.35.04,2.78-.74,4.14,0,0-.7,1.36-2.21,2.43,0,0,4.82,4.08,9.26,5.75" style="fill: #001c58;"/>
</svg>